# xmcd
#
# Track frame offsets: 
#        182
#        14900
#        33060
#        45257
#        65417
#        87062
#        97480
#        121455
#        137432
#        152842
#        177567
#        197782
#        217945
#        238040
#        256060
#        272220
#
# Disc length: 4133 seconds
#
# Revision: 1
# Processed by: cddbd v1.5.2PL0 Copyright (c) Steve Scherf et al.
# Submitted via: ExactAudioCopyFreeDBPlugin 1.0
#
DISCID=e0102310
DTITLE=The Neville Brothers - The Very Best of The Neville Brothers
DYEAR=1997
DGENRE=Rhythm and Blues
TTITLE0=Dancing Jones
TTITLE1=Washable Ink
TTITLE2=Tell it Like it Is
TTITLE3=Break Away
TTITLE4=Arianne
TTITLE5=Over You
TTITLE6=Feaver
TTITLE7=Brother John
TTITLE8=Meet De Boys on the Battlefront
TTITLE9=Mojo Hannah
TTITLE10=Fear, Hate, Envy, Jealousy
TTITLE11=Midnight Key
TTITLE12=Spirits of the World
TTITLE13=Drift Away
TTITLE14=Wake Up
TTITLE15=Amazing Grace - Down by the Riverside - Amen
EXTD=
EXTT0=
EXTT1=
EXTT2=
EXTT3=
EXTT4=
EXTT5=
EXTT6=
EXTT7=
EXTT8=
EXTT9=
EXTT10=
EXTT11=
EXTT12=
EXTT13=
EXTT14=
EXTT15=
PLAYORDER=
